<svg id="visual" viewBox="0 0 900 600" width="100%" height="auto" xmlns="http://www.w3.org/2000/svg" xmlns:xlink="http://www.w3.org/1999/xlink" version="1.1">
    <rect x="0" y="0" width="900" height="600" fill="#ffffff"></rect>
    <defs>
        <linearGradient id="grad1_0" x1="66.7%" y1="0%" x2="0%" y2="100%">
            <stop offset="20%" stop-color="#194e82" stop-opacity="1"></stop>
            <stop offset="80%" stop-color="#194e82" stop-opacity="1"></stop>
        </linearGradient>
    </defs>
    <defs>
        <linearGradient id="grad1_1" x1="66.7%" y1="0%" x2="0%" y2="100%">
            <stop offset="20%" stop-color="#194e82" stop-opacity="1"></stop>
            <stop offset="80%" stop-color="#496896" stop-opacity="1"></stop>
        </linearGradient>
    </defs>
    <defs>
        <linearGradient id="grad1_2" x1="66.7%" y1="0%" x2="0%" y2="100%">
            <stop offset="20%" stop-color="#6e84ab" stop-opacity="1"></stop>
            <stop offset="80%" stop-color="#496896" stop-opacity="1"></stop>
        </linearGradient>
    </defs>
    <defs>
        <linearGradient id="grad1_3" x1="66.7%" y1="0%" x2="0%" y2="100%">
            <stop offset="20%" stop-color="#6e84ab" stop-opacity="1"></stop>
            <stop offset="80%" stop-color="#92a2bf" stop-opacity="1"></stop>
        </linearGradient>
    </defs>
    <defs>
        <linearGradient id="grad1_4" x1="66.7%" y1="0%" x2="0%" y2="100%">
            <stop offset="20%" stop-color="#b6c0d4" stop-opacity="1"></stop>
            <stop offset="80%" stop-color="#92a2bf" stop-opacity="1"></stop>
        </linearGradient>
    </defs>
    <defs>
        <linearGradient id="grad1_5" x1="66.7%" y1="0%" x2="0%" y2="100%">
            <stop offset="20%" stop-color="#b6c0d4" stop-opacity="1"></stop>
            <stop offset="80%" stop-color="#dadfe9" stop-opacity="1"></stop>
        </linearGradient>
    </defs>
    <defs>
        <linearGradient id="grad1_6" x1="66.7%" y1="0%" x2="0%" y2="100%">
            <stop offset="20%" stop-color="#ffffff" stop-opacity="1"></stop>
            <stop offset="80%" stop-color="#dadfe9" stop-opacity="1"></stop>
        </linearGradient>
    </defs>
    <g transform="translate(900, 600) scale(-1, -1)">
        <path d="M0 378.6C41.5 377.2 83 375.8 117 360.1C151 344.3 177.5 314.2 211.6 291.2C245.7 268.3 287.4 252.5 305 221.6C322.6 190.7 316.1 144.8 324.3 105.4C332.6 65.9 355.6 33 378.6 0L0 0Z" fill="none" stroke="#162d4d" stroke-width="1"></path>
        <path d="M0 324.5C35.6 323.3 71.1 322.1 100.3 308.6C129.4 295.1 152.1 269.3 181.4 249.6C210.6 230 246.4 216.4 261.4 189.9C276.5 163.5 270.9 124.1 278 90.3C285 56.5 304.8 28.3 324.5 0L0 0Z" fill="none" stroke="#162d4d" stroke-width="1"></path>
        <path d="M0 270.4C29.6 269.4 59.3 268.4 83.6 257.2C107.8 245.9 126.8 224.4 151.1 208C175.5 191.6 205.3 180.3 217.9 158.3C230.4 136.2 225.8 103.4 231.7 75.3C237.5 47.1 254 23.5 270.4 0L0 0Z" fill="none" stroke="#162d4d" stroke-width="1"></path>
        <path d="M0 216.3C23.7 215.5 47.4 214.7 66.9 205.7C86.3 196.7 101.4 179.5 120.9 166.4C140.4 153.3 164.2 144.3 174.3 126.6C184.3 109 180.6 82.8 185.3 60.2C190 37.7 203.2 18.8 216.3 0L0 0Z" fill="none" stroke="#162d4d" stroke-width="1"></path>
        <path d="M0 162.2C17.8 161.7 35.6 161.1 50.1 154.3C64.7 147.6 76.1 134.7 90.7 124.8C105.3 115 123.2 108.2 130.9 92.9C138.6 77.7 134.2 56.8 135.4 36.7C136.7 16.5 142.4 -1.3 152.5 0L0 0Z" fill="none" stroke="#162d4d" stroke-width="1"></path>
        <path d="M0 108.1C11.8 108.3 23.2 108.4 32.9 106.9C42.7 105.4 50.8 101.3 61.7 96.5C72.6 91.8 86.4 86.5 98.8 83.2C111.2 80 122.3 79.7 130.9 72.3C139.5 64.9 146 50.5 150.3 41.5C154.7 32.5 157.9 28.9 162.1 17.5C166.2 6.1 171.4 0.7 177.5 0L0 0Z" fill="none" stroke="#162d4d" stroke-width="1"></path>
        <path d="M0 54.1C3.1 54.2 6.1 54.3 8.9 54.2C11.7 54.1 13.9 53.9 17.4 53.6C20.9 53.3 24.9 52.9 31 52.5C37.1 52.2 44.1 51.9 51.8 51.4C59.5 50.9 67.8 50.4 73.3 48.5C78.8 46.6 80.4 41.8 82.7 38.2C85 34.5 87.1 32.2 89.1 29.6C91.2 27 91.1 24.1 91.1 20.9C91.1 17.6 91.3 13.9 92.2 11.2C93.1 8.4 93.8 5.9 92.9 3.1C92 0.3 89.5 -2.1 86.1 0L0 0Z" fill="none" stroke="#162d4d" stroke-width="1"></path>
        <path d="M0 0C0 0 0 0 0 0C0 0 0 0 0 0Z" fill="none" stroke="#162d4d" stroke-width="1"></path>
    </g>
</svg>
